<svg id="Layer_1" data-name="Layer 1" xmlns="http://www.w3.org/2000/svg" viewBox="0 0 678.54 96.92"><defs><style>.cls-1{fill:#231f20;}.cls-2,.cls-3{fill:none;stroke-miterlimit:10;}.cls-2{stroke:#fff;}.cls-3{stroke:#231f20;}</style></defs><title>HAYDENS_LOGO_VECTOR (1)</title><path class="cls-1" d="M701.42,210.33c0,.07,60.64,18.28,60.64,18.28-.58,26.26-22.1,47.7-48.5,47.7s-47.9-21.46-48.48-47.72l60.21,18.09.39-1.29L665.1,227.18c.54-26.3,22-47.79,48.46-47.79s47.73,21.67,48.46,47.79l-60.17-18.09Z" transform="translate(-83.53 -179.39)"/><polygon class="cls-1" points="0 0 0 96.92 47.78 96.92 47.78 60.57 49.13 60.55 49.13 96.89 54.52 96.92 96.92 96.92 96.92 0 49.13 0 49.15 36.34 47.81 36.37 47.78 0 0 0"/><polygon class="cls-1" points="193.84 96.92 145.38 0 96.92 96.92 193.84 96.92"/><path class="cls-1" d="M471.2,227.85a48.45,48.45,0,0,1-48.46,48.46H374.28V179.39h48.46A48.46,48.46,0,0,1,471.2,227.85Z" transform="translate(-83.53 -179.39)"/><path class="cls-1" d="M568.12,276.31H471.2V246.7h96.92Zm0-96.92H471.2V209h96.92Zm0,31H471.2v34.89h96.92Z" transform="translate(-83.53 -179.39)"/><polygon class="cls-1" points="581.51 0 581.51 96.92 484.59 0 581.51 0"/><path class="cls-2" d="M701.38,209.68" transform="translate(-83.53 -179.39)"/><path class="cls-2" d="M762,227.85" transform="translate(-83.53 -179.39)"/><path class="cls-2" d="M665,227.85" transform="translate(-83.53 -179.39)"/><path class="cls-2" d="M132,240" transform="translate(-83.53 -179.39)"/><path class="cls-2" d="M132,276.31" transform="translate(-83.53 -179.39)"/><path class="cls-2" d="M132,179.39" transform="translate(-83.53 -179.39)"/><path class="cls-2" d="M132,215.74" transform="translate(-83.53 -179.39)"/><polygon points="193.84 0 242.3 48.46 290.76 0 193.84 0"/><line class="cls-3" x1="242.3" y1="42.4" x2="242.3" y2="96.92"/></svg>